# MagicaVoxel @ Ephtracy

# material
mtllib Invader2.mtl
usemtl palette

# normals
vn -1 0 0
vn 1 0 0
vn 0 0 1
vn 0 0 -1
vn 0 -1 0
vn 0 1 0

# texcoords
vt 0.611328 0.5
vt 0.615234 0.5
vt 0.619141 0.5
vt 0.841797 0.5

# verts
v -9 6 -2
v -9 6 -9
v -9 7 -9
v -9 7 -12
v -9 8 -2
v -9 8 -12
v -9 9 -2
v -9 9 -12
v -8 2 1
v -8 2 -3
v -8 4 -0
v -8 4 -1
v -8 4 -2
v -8 4 -3
v -8 5 7
v -8 5 5
v -8 5 1
v -8 6 7
v -8 6 5
v -8 6 1
v -8 6 -0
v -8 6 -1
v -8 6 -2
v -8 7 7
v -8 7 1
v -8 7 -0
v -8 7 -1
v -8 8 1
v -8 8 -0
v -8 8 -2
v -8 9 -0
v -8 9 -2
v -7 4 -2
v -7 4 -3
v -7 4 -4
v -7 5 -4
v -7 5 -5
v -7 6 -2
v -7 6 -3
v -7 6 -5
v -5 3 -2
v -5 3 -4
v -5 4 -2
v -5 4 -3
v -5 4 -4
v -5 9 -3
v -5 9 -5
v -5 9 -6
v -5 10 -3
v -5 10 -6
v -4 7 -4
v -4 7 -5
v -4 7 -7
v -4 8 -4
v -4 8 -6
v -4 8 -7
v -3 1 -0
v -3 1 -2
v -3 2 -1
v -3 2 -2
v -3 3 -4
v -3 3 -5
v -3 5 -4
v -3 5 -5
v -3 5 -6
v -3 7 2
v -3 7 1
v -3 7 -0
v -3 7 -1
v -3 7 -5
v -3 7 -6
v -3 8 1
v -3 8 -0
v -3 9 2
v -3 9 1
v -3 9 -0
v -3 9 -2
v -3 10 -0
v -3 10 -2
v -2 7 3
v -2 7 2
v -2 9 3
v -2 9 2
v 1 7 3
v 1 7 2
v 1 9 3
v 1 9 2
v 2 9 -3
v 2 9 -5
v 2 9 -6
v 2 10 -3
v 2 10 -6
v 4 5 7
v 4 5 3
v 4 6 7
v 4 6 3
v 4 7 7
v 4 7 3
v 5 7 -4
v 5 7 -5
v 5 7 -6
v 5 7 -10
v 5 7 -12
v 5 8 -4
v 5 8 -6
v 5 8 -11
v 5 8 -12
v 5 9 -10
v 5 9 -11
v 5 9 -12
v 6 2 1
v 6 2 -1
v 6 2 -2
v 6 2 -3
v 6 4 -0
v 6 4 -1
v 6 4 -2
v 6 4 -3
v 6 5 3
v 6 5 1
v 6 7 3
v 6 7 1
v 6 7 -0
v 7 6 -5
v 7 6 -9
v 7 7 -5
v 7 7 -6
v 7 7 -9
v 7 7 -10
v 7 8 -6
v 7 9 -6
v 7 9 -10
v -7 6 -5
v -7 6 -9
v -7 7 -5
v -7 7 -6
v -7 7 -9
v -7 7 -10
v -7 8 -6
v -7 9 -6
v -7 9 -10
v -6 2 1
v -6 2 -1
v -6 2 -2
v -6 2 -3
v -6 4 -0
v -6 4 -1
v -6 4 -2
v -6 4 -3
v -6 5 3
v -6 5 1
v -6 7 3
v -6 7 1
v -6 7 -0
v -5 7 -4
v -5 7 -5
v -5 7 -6
v -5 7 -10
v -5 7 -12
v -5 8 -4
v -5 8 -6
v -5 8 -11
v -5 8 -12
v -5 9 -10
v -5 9 -11
v -5 9 -12
v -4 5 7
v -4 5 3
v -4 6 7
v -4 6 3
v -4 7 7
v -4 7 3
v -2 9 -3
v -2 9 -5
v -2 9 -6
v -2 10 -3
v -2 10 -6
v -1 7 3
v -1 7 2
v -1 9 3
v -1 9 2
v 2 7 3
v 2 7 2
v 2 9 3
v 2 9 2
v 3 1 -0
v 3 1 -2
v 3 2 -1
v 3 2 -2
v 3 3 -4
v 3 3 -5
v 3 5 -4
v 3 5 -5
v 3 5 -6
v 3 7 2
v 3 7 1
v 3 7 -0
v 3 7 -1
v 3 7 -5
v 3 7 -6
v 3 8 1
v 3 8 -0
v 3 9 2
v 3 9 1
v 3 9 -0
v 3 9 -2
v 3 10 -0
v 3 10 -2
v 4 7 -4
v 4 7 -5
v 4 7 -7
v 4 8 -4
v 4 8 -6
v 4 8 -7
v 5 3 -2
v 5 3 -4
v 5 4 -2
v 5 4 -3
v 5 4 -4
v 5 9 -3
v 5 9 -5
v 5 9 -6
v 5 10 -3
v 5 10 -6
v 7 4 -2
v 7 4 -3
v 7 4 -4
v 7 5 -4
v 7 5 -5
v 7 6 -2
v 7 6 -3
v 7 6 -5
v 8 2 1
v 8 2 -3
v 8 4 -0
v 8 4 -1
v 8 4 -2
v 8 4 -3
v 8 5 7
v 8 5 5
v 8 5 1
v 8 6 7
v 8 6 5
v 8 6 1
v 8 6 -0
v 8 6 -1
v 8 6 -2
v 8 7 7
v 8 7 1
v 8 7 -0
v 8 7 -1
v 8 8 1
v 8 8 -0
v 8 8 -2
v 8 9 -0
v 8 9 -2
v 9 6 -2
v 9 6 -9
v 9 7 -9
v 9 7 -12
v 9 8 -2
v 9 8 -12
v 9 9 -2
v 9 9 -12
v -8 5 7
v -8 6 7
v -8 7 7
v -4 5 7
v -4 6 7
v -4 7 7
v 4 5 7
v 4 6 7
v 4 7 7
v 8 5 7
v 8 6 7
v 8 7 7
v -2 7 3
v -2 9 3
v -1 7 3
v -1 9 3
v 1 7 3
v 1 9 3
v 2 7 3
v 2 9 3
v -3 7 2
v -3 9 2
v -2 7 2
v -2 9 2
v -1 7 2
v -1 9 2
v 1 7 2
v 1 9 2
v 2 7 2
v 2 9 2
v 3 7 2
v 3 9 2
v -8 2 1
v -8 5 1
v -8 7 1
v -8 8 1
v -7 7 1
v -7 8 1
v -6 2 1
v -6 5 1
v -6 7 1
v -3 7 1
v -3 8 1
v 3 7 1
v 3 8 1
v 6 2 1
v 6 5 1
v 6 7 1
v 7 7 1
v 7 8 1
v 8 2 1
v 8 5 1
v 8 7 1
v 8 8 1
v -8 8 -0
v -8 9 -0
v -7 8 -0
v -7 9 -0
v -3 1 -0
v -3 7 -0
v -3 8 -0
v -3 9 -0
v -3 10 -0
v -1 9 -0
v -1 10 -0
v 1 9 -0
v 1 10 -0
v 3 1 -0
v 3 7 -0
v 3 8 -0
v 3 9 -0
v 3 10 -0
v 7 8 -0
v 7 9 -0
v 8 8 -0
v 8 9 -0
v -8 4 -1
v -8 6 -1
v -8 7 -1
v -7 6 -1
v -7 7 -1
v -6 2 -1
v -6 4 -1
v -3 2 -1
v -3 7 -1
v 3 2 -1
v 3 7 -1
v 6 2 -1
v 6 4 -1
v 7 6 -1
v 7 7 -1
v 8 4 -1
v 8 6 -1
v 8 7 -1
v -9 6 -2
v -9 8 -2
v -9 9 -2
v -8 6 -2
v -8 8 -2
v -8 9 -2
v 8 6 -2
v 8 8 -2
v 8 9 -2
v 9 6 -2
v 9 8 -2
v 9 9 -2
v -5 9 -3
v -5 10 -3
v -2 9 -3
v -2 10 -3
v 2 9 -3
v 2 10 -3
v 5 9 -3
v 5 10 -3
v -7 7 -10
v -7 9 -10
v -5 7 -10
v -5 9 -10
v 5 7 -10
v 5 9 -10
v 7 7 -10
v 7 9 -10
v -6 5 3
v -6 7 3
v -5 6 3
v -5 7 3
v -4 5 3
v -4 6 3
v -4 7 3
v 4 5 3
v 4 6 3
v 4 7 3
v 5 6 3
v 5 7 3
v 6 5 3
v 6 7 3
v -8 4 -0
v -8 6 -0
v -8 7 -0
v -7 6 -0
v -7 7 -0
v -6 4 -0
v -6 7 -0
v 6 4 -0
v 6 7 -0
v 7 6 -0
v 7 7 -0
v 8 4 -0
v 8 6 -0
v 8 7 -0
v -8 4 -2
v -8 6 -2
v -7 4 -2
v -7 6 -2
v -6 2 -2
v -6 4 -2
v -5 3 -2
v -5 4 -2
v -3 1 -2
v -3 2 -2
v -3 9 -2
v -3 10 -2
v -1 2 -2
v -1 3 -2
v -1 9 -2
v -1 10 -2
v 1 2 -2
v 1 3 -2
v 1 9 -2
v 1 10 -2
v 3 1 -2
v 3 2 -2
v 3 9 -2
v 3 10 -2
v 5 3 -2
v 5 4 -2
v 6 2 -2
v 6 4 -2
v 7 4 -2
v 7 6 -2
v 8 4 -2
v 8 6 -2
v -8 2 -3
v -8 4 -3
v -7 4 -3
v -6 2 -3
v -6 4 -3
v 6 2 -3
v 6 4 -3
v 7 4 -3
v 8 2 -3
v 8 4 -3
v -7 4 -4
v -7 5 -4
v -5 3 -4
v -5 4 -4
v -5 7 -4
v -5 8 -4
v -4 7 -4
v -4 8 -4
v -3 3 -4
v -3 5 -4
v 3 3 -4
v 3 5 -4
v 4 7 -4
v 4 8 -4
v 5 3 -4
v 5 4 -4
v 5 7 -4
v 5 8 -4
v 7 4 -4
v 7 5 -4
v -7 5 -5
v -7 6 -5
v -7 7 -5
v -5 7 -5
v -4 7 -5
v -3 3 -5
v -3 5 -5
v -3 7 -5
v 3 3 -5
v 3 5 -5
v 3 7 -5
v 4 7 -5
v 5 7 -5
v 7 5 -5
v 7 6 -5
v 7 7 -5
v -7 7 -6
v -7 8 -6
v -7 9 -6
v -5 7 -6
v -5 8 -6
v -5 9 -6
v -5 10 -6
v -4 8 -6
v -3 5 -6
v -3 7 -6
v -2 8 -6
v -2 9 -6
v -2 10 -6
v 2 8 -6
v 2 9 -6
v 2 10 -6
v 3 5 -6
v 3 7 -6
v 4 8 -6
v 5 7 -6
v 5 8 -6
v 5 9 -6
v 5 10 -6
v 7 7 -6
v 7 8 -6
v 7 9 -6
v -4 7 -7
v -4 8 -7
v 4 7 -7
v 4 8 -7
v -9 6 -9
v -9 7 -9
v -7 6 -9
v -7 7 -9
v 7 6 -9
v 7 7 -9
v 9 6 -9
v 9 7 -9
v -9 7 -12
v -9 8 -12
v -9 9 -12
v -5 7 -12
v -5 8 -12
v -5 9 -12
v 5 7 -12
v 5 8 -12
v 5 9 -12
v 9 7 -12
v 9 8 -12
v 9 9 -12
v -3 1 -0
v 3 1 -0
v -3 1 -2
v 3 1 -2
v -8 2 1
v -6 2 1
v 6 2 1
v 8 2 1
v -6 2 -1
v -3 2 -1
v 3 2 -1
v 6 2 -1
v -6 2 -2
v -3 2 -2
v 3 2 -2
v 6 2 -2
v -8 2 -3
v -6 2 -3
v 6 2 -3
v 8 2 -3
v -5 3 -2
v -1 3 -2
v 1 3 -2
v 5 3 -2
v -5 3 -4
v -3 3 -4
v 3 3 -4
v 5 3 -4
v -3 3 -5
v 3 3 -5
v -6 4 -2
v -5 4 -2
v 5 4 -2
v 6 4 -2
v -7 4 -3
v -6 4 -3
v -5 4 -3
v 5 4 -3
v 6 4 -3
v 7 4 -3
v -7 4 -4
v -5 4 -4
v 5 4 -4
v 7 4 -4
v -8 5 7
v -4 5 7
v 4 5 7
v 8 5 7
v -8 5 5
v -6 5 5
v 6 5 5
v 8 5 5
v -6 5 3
v -4 5 3
v 4 5 3
v 6 5 3
v -8 5 1
v -6 5 1
v 6 5 1
v 8 5 1
v -7 5 -4
v -3 5 -4
v 3 5 -4
v 7 5 -4
v -7 5 -5
v -3 5 -5
v 3 5 -5
v 7 5 -5
v -3 5 -6
v 3 5 -6
v -9 6 -2
v -8 6 -2
v -7 6 -2
v 7 6 -2
v 8 6 -2
v 9 6 -2
v -8 6 -3
v -7 6 -3
v 7 6 -3
v 8 6 -3
v -7 6 -5
v 7 6 -5
v -9 6 -9
v -7 6 -9
v 7 6 -9
v 9 6 -9
v -2 7 3
v -1 7 3
v 1 7 3
v 2 7 3
v -3 7 2
v -2 7 2
v -1 7 2
v 1 7 2
v 2 7 2
v 3 7 2
v -6 7 1
v -3 7 1
v 3 7 1
v 6 7 1
v -8 7 -0
v -7 7 -0
v -6 7 -0
v -3 7 -0
v 3 7 -0
v 6 7 -0
v 7 7 -0
v 8 7 -0
v -8 7 -1
v -7 7 -1
v -3 7 -1
v 3 7 -1
v 7 7 -1
v 8 7 -1
v -7 7 -5
v -5 7 -5
v -4 7 -5
v -3 7 -5
v 3 7 -5
v 4 7 -5
v 5 7 -5
v 7 7 -5
v -7 7 -6
v -5 7 -6
v -3 7 -6
v 3 7 -6
v 5 7 -6
v 7 7 -6
v -4 7 -7
v 4 7 -7
v -9 7 -9
v -7 7 -9
v 7 7 -9
v 9 7 -9
v -7 7 -10
v -5 7 -10
v 5 7 -10
v 7 7 -10
v -9 7 -12
v -5 7 -12
v 5 7 -12
v 9 7 -12
v -5 8 -4
v -4 8 -4
v 4 8 -4
v 5 8 -4
v -5 8 -6
v -4 8 -6
v 4 8 -6
v 5 8 -6
v -8 4 -0
v -6 4 -0
v 6 4 -0
v 8 4 -0
v -8 4 -1
v -6 4 -1
v 6 4 -1
v 8 4 -1
v -8 4 -2
v -7 4 -2
v 7 4 -2
v 8 4 -2
v -8 4 -3
v -7 4 -3
v 7 4 -3
v 8 4 -3
v -8 7 7
v -4 7 7
v 4 7 7
v 8 7 7
v -7 7 6
v -5 7 6
v 5 7 6
v 7 7 6
v -7 7 5
v -6 7 5
v 6 7 5
v 7 7 5
v -6 7 3
v -5 7 3
v -4 7 3
v 4 7 3
v 5 7 3
v 6 7 3
v -8 7 1
v -7 7 1
v -6 7 1
v 6 7 1
v 7 7 1
v 8 7 1
v -5 7 -4
v -4 7 -4
v 4 7 -4
v 5 7 -4
v -5 7 -5
v -4 7 -5
v 4 7 -5
v 5 7 -5
v -8 8 1
v -7 8 1
v -3 8 1
v 3 8 1
v 7 8 1
v 8 8 1
v -8 8 -0
v -7 8 -0
v -3 8 -0
v 3 8 -0
v 7 8 -0
v 8 8 -0
v -4 8 -6
v -2 8 -6
v 2 8 -6
v 4 8 -6
v -4 8 -7
v 4 8 -7
v -2 9 3
v -1 9 3
v 1 9 3
v 2 9 3
v -3 9 2
v -2 9 2
v -1 9 2
v 1 9 2
v 2 9 2
v 3 9 2
v -3 9 1
v 3 9 1
v -8 9 -0
v -7 9 -0
v -3 9 -0
v -1 9 -0
v 1 9 -0
v 3 9 -0
v 7 9 -0
v 8 9 -0
v -9 9 -2
v -8 9 -2
v -7 9 -2
v -3 9 -2
v -1 9 -2
v 1 9 -2
v 3 9 -2
v 7 9 -2
v 8 9 -2
v 9 9 -2
v -8 9 -3
v -7 9 -3
v -5 9 -3
v -2 9 -3
v 2 9 -3
v 5 9 -3
v 7 9 -3
v 8 9 -3
v -7 9 -5
v -5 9 -5
v -2 9 -5
v 2 9 -5
v 5 9 -5
v 7 9 -5
v -7 9 -6
v -5 9 -6
v -2 9 -6
v 2 9 -6
v 5 9 -6
v 7 9 -6
v -7 9 -10
v -5 9 -10
v 5 9 -10
v 7 9 -10
v -8 9 -11
v -5 9 -11
v 5 9 -11
v 8 9 -11
v -9 9 -12
v -5 9 -12
v 5 9 -12
v 9 9 -12
v -3 10 -0
v -1 10 -0
v 1 10 -0
v 3 10 -0
v -3 10 -2
v -1 10 -2
v 1 10 -2
v 3 10 -2
v -5 10 -3
v -2 10 -3
v 2 10 -3
v 5 10 -3
v -4 10 -4
v -3 10 -4
v 3 10 -4
v 4 10 -4
v -4 10 -5
v -3 10 -5
v 3 10 -5
v 4 10 -5
v -5 10 -6
v -2 10 -6
v 2 10 -6
v 5 10 -6

# faces
f 3/2/1 2/2/1 1/2/1
f 5/2/1 3/2/1 1/2/1
f 5/2/1 4/2/1 3/2/1
f 6/2/1 4/2/1 5/2/1
f 7/4/1 6/4/1 5/4/1
f 8/4/1 6/4/1 7/4/1
f 11/2/1 10/2/1 9/2/1
f 12/2/1 10/2/1 11/2/1
f 13/2/1 10/2/1 12/2/1
f 14/2/1 10/2/1 13/2/1
f 17/2/1 11/2/1 9/2/1
f 18/2/1 16/2/1 15/2/1
f 19/1/1 17/1/1 16/1/1
f 19/2/1 16/2/1 18/2/1
f 20/2/1 11/2/1 17/2/1
f 20/1/1 17/1/1 19/1/1
f 21/2/1 11/2/1 20/2/1
f 22/2/1 13/2/1 12/2/1
f 23/2/1 13/2/1 22/2/1
f 24/4/1 21/4/1 20/4/1
f 24/4/1 19/4/1 18/4/1
f 24/4/1 20/4/1 19/4/1
f 25/4/1 21/4/1 24/4/1
f 26/4/1 21/4/1 25/4/1
f 27/4/1 23/4/1 22/4/1
f 28/4/1 26/4/1 25/4/1
f 28/4/1 27/4/1 26/4/1
f 29/4/1 27/4/1 28/4/1
f 30/4/1 23/4/1 27/4/1
f 30/4/1 27/4/1 29/4/1
f 31/4/1 30/4/1 29/4/1
f 32/4/1 30/4/1 31/4/1
f 36/2/1 35/2/1 34/2/1
f 38/1/1 34/1/1 33/1/1
f 39/2/1 37/2/1 36/2/1
f 39/1/1 34/1/1 38/1/1
f 39/2/1 36/2/1 34/2/1
f 40/2/1 37/2/1 39/2/1
f 43/2/1 42/2/1 41/2/1
f 44/2/1 42/2/1 43/2/1
f 45/2/1 42/2/1 44/2/1
f 49/2/1 47/2/1 46/2/1
f 49/2/1 48/2/1 47/2/1
f 50/2/1 48/2/1 49/2/1
f 54/2/1 52/2/1 51/2/1
f 54/2/1 53/2/1 52/2/1
f 55/2/1 53/2/1 54/2/1
f 56/2/1 53/2/1 55/2/1
f 59/1/1 58/1/1 57/1/1
f 60/1/1 58/1/1 59/1/1
f 63/2/1 62/2/1 61/2/1
f 64/2/1 62/2/1 63/2/1
f 68/1/1 59/1/1 57/1/1
f 69/1/1 59/1/1 68/1/1
f 70/2/1 65/2/1 64/2/1
f 71/2/1 65/2/1 70/2/1
f 72/2/1 67/2/1 66/2/1
f 74/2/1 72/2/1 66/2/1
f 75/4/1 73/4/1 72/4/1
f 75/2/1 72/2/1 74/2/1
f 76/4/1 73/4/1 75/4/1
f 78/1/1 77/1/1 76/1/1
f 79/1/1 77/1/1 78/1/1
f 82/2/1 81/2/1 80/2/1
f 83/2/1 81/2/1 82/2/1
f 86/2/1 85/2/1 84/2/1
f 87/2/1 85/2/1 86/2/1
f 91/2/1 89/2/1 88/2/1
f 91/2/1 90/2/1 89/2/1
f 92/2/1 90/2/1 91/2/1
f 95/2/1 94/2/1 93/2/1
f 96/2/1 94/2/1 95/2/1
f 97/4/1 96/4/1 95/4/1
f 98/4/1 96/4/1 97/4/1
f 104/2/1 100/2/1 99/2/1
f 104/2/1 101/2/1 100/2/1
f 105/2/1 101/2/1 104/2/1
f 106/2/1 103/2/1 102/2/1
f 107/2/1 103/2/1 106/2/1
f 108/2/1 106/2/1 102/2/1
f 109/4/1 107/4/1 106/4/1
f 109/2/1 106/2/1 108/2/1
f 110/4/1 107/4/1 109/4/1
f 115/2/1 112/2/1 111/2/1
f 116/2/1 112/2/1 115/2/1
f 117/2/1 114/2/1 113/2/1
f 118/2/1 114/2/1 117/2/1
f 120/2/1 115/2/1 111/2/1
f 121/1/1 120/1/1 119/1/1
f 122/2/1 115/2/1 120/2/1
f 122/1/1 120/1/1 121/1/1
f 123/2/1 115/2/1 122/2/1
f 126/2/1 125/2/1 124/2/1
f 127/2/1 125/2/1 126/2/1
f 128/2/1 125/2/1 127/2/1
f 130/2/1 129/2/1 128/2/1
f 130/2/1 128/2/1 127/2/1
f 131/2/1 129/2/1 130/2/1
f 132/2/1 129/2/1 131/2/1
f 133/2/2 134/2/2 135/2/2
f 135/2/2 134/2/2 136/2/2
f 136/2/2 134/2/2 137/2/2
f 137/2/2 138/2/2 139/2/2
f 136/2/2 137/2/2 139/2/2
f 139/2/2 138/2/2 140/2/2
f 140/2/2 138/2/2 141/2/2
f 142/2/2 143/2/2 146/2/2
f 146/2/2 143/2/2 147/2/2
f 144/2/2 145/2/2 148/2/2
f 148/2/2 145/2/2 149/2/2
f 142/2/2 146/2/2 151/2/2
f 150/1/2 151/1/2 152/1/2
f 151/2/2 146/2/2 153/2/2
f 152/1/2 151/1/2 153/1/2
f 153/2/2 146/2/2 154/2/2
f 155/2/2 156/2/2 160/2/2
f 156/2/2 157/2/2 160/2/2
f 160/2/2 157/2/2 161/2/2
f 158/2/2 159/2/2 162/2/2
f 162/2/2 159/2/2 163/2/2
f 158/2/2 162/2/2 164/2/2
f 162/4/2 163/4/2 165/4/2
f 164/2/2 162/2/2 165/2/2
f 165/4/2 163/4/2 166/4/2
f 167/2/2 168/2/2 169/2/2
f 169/2/2 168/2/2 170/2/2
f 169/4/2 170/4/2 171/4/2
f 171/4/2 170/4/2 172/4/2
f 173/2/2 174/2/2 176/2/2
f 174/2/2 175/2/2 176/2/2
f 176/2/2 175/2/2 177/2/2
f 178/2/2 179/2/2 180/2/2
f 180/2/2 179/2/2 181/2/2
f 182/2/2 183/2/2 184/2/2
f 184/2/2 183/2/2 185/2/2
f 186/1/2 187/1/2 188/1/2
f 188/1/2 187/1/2 189/1/2
f 190/2/2 191/2/2 192/2/2
f 192/2/2 191/2/2 193/2/2
f 186/1/2 188/1/2 197/1/2
f 197/1/2 188/1/2 198/1/2
f 193/2/2 194/2/2 199/2/2
f 199/2/2 194/2/2 200/2/2
f 195/2/2 196/2/2 201/2/2
f 195/2/2 201/2/2 203/2/2
f 201/4/2 202/4/2 204/4/2
f 203/2/2 201/2/2 204/2/2
f 204/4/2 202/4/2 205/4/2
f 205/1/2 206/1/2 207/1/2
f 207/1/2 206/1/2 208/1/2
f 209/2/2 210/2/2 212/2/2
f 210/2/2 211/2/2 212/2/2
f 212/2/2 211/2/2 213/2/2
f 213/2/2 211/2/2 214/2/2
f 215/2/2 216/2/2 217/2/2
f 217/2/2 216/2/2 218/2/2
f 218/2/2 216/2/2 219/2/2
f 220/2/2 221/2/2 223/2/2
f 221/2/2 222/2/2 223/2/2
f 223/2/2 222/2/2 224/2/2
f 226/2/2 227/2/2 228/2/2
f 225/1/2 226/1/2 230/1/2
f 228/2/2 229/2/2 231/2/2
f 230/1/2 226/1/2 231/1/2
f 226/2/2 228/2/2 231/2/2
f 231/2/2 229/2/2 232/2/2
f 233/2/2 234/2/2 235/2/2
f 235/2/2 234/2/2 236/2/2
f 236/2/2 234/2/2 237/2/2
f 237/2/2 234/2/2 238/2/2
f 233/2/2 235/2/2 241/2/2
f 239/2/2 240/2/2 242/2/2
f 240/1/2 241/1/2 243/1/2
f 242/2/2 240/2/2 243/2/2
f 241/2/2 235/2/2 244/2/2
f 243/1/2 241/1/2 244/1/2
f 244/2/2 235/2/2 245/2/2
f 236/2/2 237/2/2 246/2/2
f 246/2/2 237/2/2 247/2/2
f 244/4/2 245/4/2 248/4/2
f 242/4/2 243/4/2 248/4/2
f 243/4/2 244/4/2 248/4/2
f 248/4/2 245/4/2 249/4/2
f 249/4/2 245/4/2 250/4/2
f 246/4/2 247/4/2 251/4/2
f 249/4/2 250/4/2 252/4/2
f 250/4/2 251/4/2 252/4/2
f 252/4/2 251/4/2 253/4/2
f 251/4/2 247/4/2 254/4/2
f 253/4/2 251/4/2 254/4/2
f 253/4/2 254/4/2 255/4/2
f 255/4/2 254/4/2 256/4/2
f 257/2/2 258/2/2 259/2/2
f 257/2/2 259/2/2 261/2/2
f 259/2/2 260/2/2 261/2/2
f 261/2/2 260/2/2 262/2/2
f 261/4/2 262/4/2 263/4/2
f 263/4/2 262/4/2 264/4/2
f 268/2/3 266/2/3 265/2/3
f 269/4/3 267/4/3 266/4/3
f 269/2/3 266/2/3 268/2/3
f 270/4/3 267/4/3 269/4/3
f 274/2/3 272/2/3 271/2/3
f 275/4/3 273/4/3 272/4/3
f 275/2/3 272/2/3 274/2/3
f 276/4/3 273/4/3 275/4/3
f 279/2/3 278/2/3 277/2/3
f 280/2/3 278/2/3 279/2/3
f 283/2/3 282/2/3 281/2/3
f 284/2/3 282/2/3 283/2/3
f 287/2/3 286/2/3 285/2/3
f 288/2/3 286/2/3 287/2/3
f 291/2/3 290/2/3 289/2/3
f 292/2/3 290/2/3 291/2/3
f 295/2/3 294/2/3 293/2/3
f 296/2/3 294/2/3 295/2/3
f 301/4/3 300/4/3 299/4/3
f 302/4/3 300/4/3 301/4/3
f 303/2/3 298/2/3 297/2/3
f 304/2/3 298/2/3 303/2/3
f 305/2/3 302/2/3 301/2/3
f 306/2/3 302/2/3 305/2/3
f 307/2/3 302/2/3 306/2/3
f 312/2/3 309/2/3 308/2/3
f 313/2/3 309/2/3 312/2/3
f 314/2/3 309/2/3 313/2/3
f 315/2/3 311/2/3 310/2/3
f 316/2/3 311/2/3 315/2/3
f 317/4/3 314/4/3 313/4/3
f 318/4/3 314/4/3 317/4/3
f 321/4/3 320/4/3 319/4/3
f 322/4/3 320/4/3 321/4/3
f 325/2/3 322/2/3 321/2/3
f 326/2/3 322/2/3 325/2/3
f 328/1/3 327/1/3 326/1/3
f 329/1/3 327/1/3 328/1/3
f 330/3/3 329/3/3 328/3/3
f 331/3/3 329/3/3 330/3/3
f 332/1/3 324/1/3 323/1/3
f 333/1/3 324/1/3 332/1/3
f 335/1/3 331/1/3 330/1/3
f 336/1/3 331/1/3 335/1/3
f 337/2/3 335/2/3 334/2/3
f 338/2/3 335/2/3 337/2/3
f 339/4/3 338/4/3 337/4/3
f 340/4/3 338/4/3 339/4/3
f 344/2/3 342/2/3 341/2/3
f 344/4/3 343/4/3 342/4/3
f 345/4/3 343/4/3 344/4/3
f 347/2/3 344/2/3 341/2/3
f 347/2/3 345/2/3 344/2/3
f 348/2/3 347/2/3 346/2/3
f 349/2/3 345/2/3 347/2/3
f 349/2/3 347/2/3 348/2/3
f 352/2/3 351/2/3 350/2/3
f 353/2/3 351/2/3 352/2/3
f 354/2/3 351/2/3 353/2/3
f 355/2/3 351/2/3 354/2/3
f 356/2/3 354/2/3 353/2/3
f 357/4/3 355/4/3 354/4/3
f 357/2/3 354/2/3 356/2/3
f 358/4/3 355/4/3 357/4/3
f 362/2/3 360/2/3 359/2/3
f 363/4/3 361/4/3 360/4/3
f 363/2/3 360/2/3 362/2/3
f 364/4/3 361/4/3 363/4/3
f 368/2/3 366/2/3 365/2/3
f 369/4/3 367/4/3 366/4/3
f 369/2/3 366/2/3 368/2/3
f 370/4/3 367/4/3 369/4/3
f 373/2/3 372/2/3 371/2/3
f 374/2/3 372/2/3 373/2/3
f 377/2/3 376/2/3 375/2/3
f 378/2/3 376/2/3 377/2/3
f 381/2/3 380/2/3 379/2/3
f 382/2/3 380/2/3 381/2/3
f 385/2/3 384/2/3 383/2/3
f 386/2/3 384/2/3 385/2/3
f 387/2/4 388/2/4 389/2/4
f 389/2/4 388/2/4 390/2/4
f 387/2/4 389/2/4 391/2/4
f 389/4/4 390/4/4 392/4/4
f 391/2/4 389/2/4 392/2/4
f 392/4/4 390/4/4 393/4/4
f 394/2/4 395/2/4 397/2/4
f 395/4/4 396/4/4 397/4/4
f 397/4/4 396/4/4 398/4/4
f 394/2/4 397/2/4 399/2/4
f 397/2/4 398/2/4 399/2/4
f 399/2/4 398/2/4 400/2/4
f 401/2/4 402/2/4 404/2/4
f 402/4/4 403/4/4 404/4/4
f 404/4/4 403/4/4 405/4/4
f 401/2/4 404/2/4 406/2/4
f 404/2/4 405/2/4 406/2/4
f 406/2/4 405/2/4 407/2/4
f 408/2/4 409/2/4 410/2/4
f 410/2/4 409/2/4 411/2/4
f 408/2/4 410/2/4 412/2/4
f 410/4/4 411/4/4 413/4/4
f 412/2/4 410/2/4 413/2/4
f 413/4/4 411/4/4 414/4/4
f 415/2/4 416/2/4 417/2/4
f 417/2/4 416/2/4 418/2/4
f 419/2/4 420/2/4 421/2/4
f 421/2/4 420/2/4 422/2/4
f 419/2/4 421/2/4 424/2/4
f 423/1/4 424/1/4 427/1/4
f 424/2/4 421/2/4 427/2/4
f 427/2/4 421/2/4 428/2/4
f 425/1/4 426/1/4 429/1/4
f 429/1/4 426/1/4 430/1/4
f 427/1/4 428/1/4 431/1/4
f 423/1/4 427/1/4 431/1/4
f 431/1/4 428/1/4 432/1/4
f 429/3/4 430/3/4 433/3/4
f 433/3/4 430/3/4 434/3/4
f 423/1/4 431/1/4 435/1/4
f 431/2/4 432/2/4 436/2/4
f 435/1/4 431/1/4 436/1/4
f 433/1/4 434/1/4 437/1/4
f 437/1/4 434/1/4 438/1/4
f 436/2/4 432/2/4 439/2/4
f 436/2/4 439/2/4 441/2/4
f 439/2/4 440/2/4 441/2/4
f 441/2/4 440/2/4 442/2/4
f 443/2/4 444/2/4 445/2/4
f 445/2/4 444/2/4 446/2/4
f 447/2/4 448/2/4 449/2/4
f 447/2/4 449/2/4 450/2/4
f 450/2/4 449/2/4 451/2/4
f 452/2/4 453/2/4 454/2/4
f 452/2/4 454/2/4 455/2/4
f 455/2/4 454/2/4 456/2/4
f 457/2/4 458/2/4 460/2/4
f 461/2/4 462/2/4 463/2/4
f 463/2/4 462/2/4 464/2/4
f 459/2/4 460/2/4 465/2/4
f 460/2/4 458/2/4 466/2/4
f 465/2/4 460/2/4 466/2/4
f 467/2/4 468/2/4 471/2/4
f 471/2/4 468/2/4 472/2/4
f 469/2/4 470/2/4 473/2/4
f 473/2/4 470/2/4 474/2/4
f 472/2/4 468/2/4 475/2/4
f 475/2/4 468/2/4 476/2/4
f 477/2/4 478/2/4 480/2/4
f 478/2/4 479/2/4 480/2/4
f 477/2/4 480/2/4 481/2/4
f 477/2/4 481/2/4 483/2/4
f 483/2/4 481/2/4 484/2/4
f 482/2/4 483/2/4 485/2/4
f 485/2/4 483/2/4 486/2/4
f 486/2/4 487/2/4 488/2/4
f 486/2/4 488/2/4 489/2/4
f 486/2/4 489/2/4 490/2/4
f 490/2/4 489/2/4 491/2/4
f 491/2/4 489/2/4 492/2/4
f 493/2/4 494/2/4 496/2/4
f 494/4/4 495/4/4 497/4/4
f 496/2/4 494/2/4 497/2/4
f 497/4/4 495/4/4 498/4/4
f 498/2/4 499/2/4 500/2/4
f 497/2/4 498/2/4 500/2/4
f 500/2/4 499/2/4 503/2/4
f 503/2/4 499/2/4 504/2/4
f 504/2/4 499/2/4 505/2/4
f 503/4/4 504/4/4 506/4/4
f 506/4/4 504/4/4 507/4/4
f 501/2/4 502/2/4 509/2/4
f 509/2/4 502/2/4 510/2/4
f 507/2/4 508/2/4 511/2/4
f 506/2/4 507/2/4 511/2/4
f 511/2/4 508/2/4 513/2/4
f 513/2/4 508/2/4 514/2/4
f 514/2/4 508/2/4 515/2/4
f 512/2/4 513/2/4 516/2/4
f 513/4/4 514/4/4 517/4/4
f 516/2/4 513/2/4 517/2/4
f 517/4/4 514/4/4 518/4/4
f 519/2/4 520/2/4 521/2/4
f 521/2/4 520/2/4 522/2/4
f 523/2/4 524/2/4 525/2/4
f 525/2/4 524/2/4 526/2/4
f 527/2/4 528/2/4 529/2/4
f 529/2/4 528/2/4 530/2/4
f 531/2/4 532/2/4 534/2/4
f 532/4/4 533/4/4 535/4/4
f 534/2/4 532/2/4 535/2/4
f 535/4/4 533/4/4 536/4/4
f 537/2/4 538/2/4 540/2/4
f 538/4/4 539/4/4 541/4/4
f 540/2/4 538/2/4 541/2/4
f 541/4/4 539/4/4 542/4/4
f 545/1/5 544/1/5 543/1/5
f 546/1/5 544/1/5 545/1/5
f 551/2/5 548/2/5 547/2/5
f 554/2/5 550/2/5 549/2/5
f 555/2/5 552/2/5 551/2/5
f 555/2/5 551/2/5 547/2/5
f 556/2/5 552/2/5 555/2/5
f 557/2/5 554/2/5 553/2/5
f 558/2/5 550/2/5 554/2/5
f 558/2/5 554/2/5 557/2/5
f 559/2/5 555/2/5 547/2/5
f 560/2/5 555/2/5 559/2/5
f 561/2/5 550/2/5 558/2/5
f 562/2/5 550/2/5 561/2/5
f 567/2/5 564/2/5 563/2/5
f 567/2/5 566/2/5 565/2/5
f 567/2/5 565/2/5 564/2/5
f 568/2/5 566/2/5 567/2/5
f 569/2/5 566/2/5 568/2/5
f 570/2/5 566/2/5 569/2/5
f 571/2/5 569/2/5 568/2/5
f 572/2/5 569/2/5 571/2/5
f 578/1/5 574/1/5 573/1/5
f 579/1/5 574/1/5 578/1/5
f 580/1/5 576/1/5 575/1/5
f 581/1/5 576/1/5 580/1/5
f 583/2/5 579/2/5 578/2/5
f 583/2/5 578/2/5 577/2/5
f 584/2/5 579/2/5 583/2/5
f 585/2/5 582/2/5 581/2/5
f 585/2/5 581/2/5 580/2/5
f 586/2/5 582/2/5 585/2/5
f 591/2/5 588/2/5 587/2/5
f 592/2/5 588/2/5 591/2/5
f 593/2/5 590/2/5 589/2/5
f 594/2/5 590/2/5 593/2/5
f 595/2/5 588/2/5 592/2/5
f 595/1/5 592/1/5 591/1/5
f 596/2/5 588/2/5 595/2/5
f 597/2/5 593/2/5 589/2/5
f 598/1/5 594/1/5 593/1/5
f 598/2/5 593/2/5 597/2/5
f 599/1/5 595/1/5 591/1/5
f 600/1/5 595/1/5 599/1/5
f 601/1/5 594/1/5 598/1/5
f 602/1/5 594/1/5 601/1/5
f 607/2/5 604/2/5 603/2/5
f 608/2/5 604/2/5 607/2/5
f 609/2/5 606/2/5 605/2/5
f 610/2/5 606/2/5 609/2/5
f 611/2/5 609/2/5 608/2/5
f 612/2/5 609/2/5 611/2/5
f 619/2/5 614/2/5 613/2/5
f 619/4/5 615/4/5 614/4/5
f 620/4/5 615/4/5 619/4/5
f 621/4/5 617/4/5 616/4/5
f 622/2/5 618/2/5 617/2/5
f 622/4/5 617/4/5 621/4/5
f 623/2/5 620/2/5 619/2/5
f 624/2/5 622/2/5 621/2/5
f 625/2/5 619/2/5 613/2/5
f 625/2/5 623/2/5 619/2/5
f 626/2/5 623/2/5 625/2/5
f 627/2/5 622/2/5 624/2/5
f 628/2/5 618/2/5 622/2/5
f 628/2/5 622/2/5 627/2/5
f 634/2/5 630/2/5 629/2/5
f 635/2/5 630/2/5 634/2/5
f 636/2/5 632/2/5 631/2/5
f 637/2/5 632/2/5 636/2/5
f 640/2/5 635/2/5 634/2/5
f 640/2/5 638/2/5 637/2/5
f 640/2/5 637/2/5 636/2/5
f 640/2/5 636/2/5 635/2/5
f 640/2/5 634/2/5 633/2/5
f 641/2/5 638/2/5 640/2/5
f 645/2/5 640/2/5 639/2/5
f 645/2/5 641/2/5 640/2/5
f 645/2/5 642/2/5 641/2/5
f 646/2/5 642/2/5 645/2/5
f 647/2/5 642/2/5 646/2/5
f 648/2/5 642/2/5 647/2/5
f 651/4/5 644/4/5 643/4/5
f 652/2/5 645/2/5 644/2/5
f 652/4/5 644/4/5 651/4/5
f 652/2/5 646/2/5 645/2/5
f 653/2/5 646/2/5 652/2/5
f 654/2/5 648/2/5 647/2/5
f 654/2/5 649/2/5 648/2/5
f 655/4/5 650/4/5 649/4/5
f 655/2/5 649/2/5 654/2/5
f 656/4/5 650/4/5 655/4/5
f 665/2/5 658/2/5 657/2/5
f 666/2/5 658/2/5 665/2/5
f 667/2/5 660/2/5 659/2/5
f 668/2/5 662/2/5 661/2/5
f 669/2/5 664/2/5 663/2/5
f 670/2/5 664/2/5 669/2/5
f 671/2/5 668/2/5 667/2/5
f 671/2/5 667/2/5 659/2/5
f 672/2/5 662/2/5 668/2/5
f 672/2/5 668/2/5 671/2/5
f 677/2/5 674/2/5 673/2/5
f 680/2/5 676/2/5 675/2/5
f 681/2/5 678/2/5 677/2/5
f 681/2/5 677/2/5 673/2/5
f 682/2/5 678/2/5 681/2/5
f 683/2/5 680/2/5 679/2/5
f 684/2/5 676/2/5 680/2/5
f 684/2/5 680/2/5 683/2/5
f 689/2/5 686/2/5 685/2/5
f 690/2/5 686/2/5 689/2/5
f 691/2/5 688/2/5 687/2/5
f 692/2/5 688/2/5 691/2/5
f 693/2/6 694/2/6 697/2/6
f 697/2/6 694/2/6 698/2/6
f 695/2/6 696/2/6 699/2/6
f 699/2/6 696/2/6 700/2/6
f 701/2/6 702/2/6 705/2/6
f 705/2/6 702/2/6 706/2/6
f 703/2/6 704/2/6 707/2/6
f 707/2/6 704/2/6 708/2/6
f 709/4/6 710/4/6 713/4/6
f 713/4/6 710/4/6 714/4/6
f 711/4/6 712/4/6 715/4/6
f 715/4/6 712/4/6 716/4/6
f 709/4/6 713/4/6 717/4/6
f 713/2/6 714/2/6 717/2/6
f 717/2/6 714/2/6 718/2/6
f 715/2/6 716/2/6 719/2/6
f 716/4/6 712/4/6 720/4/6
f 719/2/6 716/2/6 720/2/6
f 718/2/6 714/2/6 721/2/6
f 717/1/6 718/1/6 721/1/6
f 714/4/6 710/4/6 722/4/6
f 721/2/6 714/2/6 722/2/6
f 722/4/6 710/4/6 723/4/6
f 711/4/6 715/4/6 724/4/6
f 715/2/6 719/2/6 725/2/6
f 724/4/6 715/4/6 725/4/6
f 719/1/6 720/1/6 726/1/6
f 725/2/6 719/2/6 726/2/6
f 709/4/6 717/4/6 727/4/6
f 717/1/6 721/1/6 728/1/6
f 727/4/6 717/4/6 728/4/6
f 728/1/6 721/1/6 729/1/6
f 726/1/6 720/1/6 730/1/6
f 720/4/6 712/4/6 731/4/6
f 730/1/6 720/1/6 731/1/6
f 731/4/6 712/4/6 732/4/6
f 733/2/6 734/2/6 737/2/6
f 737/2/6 734/2/6 738/2/6
f 735/2/6 736/2/6 739/2/6
f 739/2/6 736/2/6 740/2/6
f 741/4/6 742/4/6 747/4/6
f 742/2/6 743/2/6 748/2/6
f 747/4/6 742/4/6 748/4/6
f 748/2/6 743/2/6 749/2/6
f 744/2/6 745/2/6 750/2/6
f 745/4/6 746/4/6 751/4/6
f 750/2/6 745/2/6 751/2/6
f 751/4/6 746/4/6 752/4/6
f 753/2/6 754/2/6 757/2/6
f 755/2/6 756/2/6 757/2/6
f 754/2/6 755/2/6 757/2/6
f 757/2/6 756/2/6 758/2/6
f 759/2/6 760/2/6 764/2/6
f 764/2/6 760/2/6 765/2/6
f 761/2/6 762/2/6 766/2/6
f 766/2/6 762/2/6 767/2/6
f 764/2/6 765/2/6 769/2/6
f 767/2/6 768/2/6 769/2/6
f 766/2/6 767/2/6 769/2/6
f 765/2/6 766/2/6 769/2/6
f 763/2/6 764/2/6 769/2/6
f 769/2/6 768/2/6 770/2/6
f 769/4/6 770/4/6 773/4/6
f 773/4/6 770/4/6 774/4/6
f 774/4/6 770/4/6 775/4/6
f 775/4/6 770/4/6 776/4/6
f 771/4/6 772/4/6 780/4/6
f 772/2/6 773/2/6 781/2/6
f 780/4/6 772/4/6 781/4/6
f 781/2/6 773/2/6 782/2/6
f 776/2/6 777/2/6 785/2/6
f 777/4/6 778/4/6 786/4/6
f 785/2/6 777/2/6 786/2/6
f 786/4/6 778/4/6 787/4/6
f 779/4/6 780/4/6 789/4/6
f 780/4/6 781/4/6 789/4/6
f 783/1/6 784/1/6 790/1/6
f 789/4/6 781/4/6 790/4/6
f 784/1/6 785/1/6 790/1/6
f 785/1/6 786/1/6 790/1/6
f 781/1/6 782/1/6 790/1/6
f 782/1/6 783/1/6 790/1/6
f 790/1/6 786/1/6 791/1/6
f 791/1/6 786/1/6 792/1/6
f 792/1/6 786/1/6 793/1/6
f 793/1/6 786/1/6 794/1/6
f 787/4/6 788/4/6 795/4/6
f 794/1/6 786/1/6 795/1/6
f 786/4/6 787/4/6 795/4/6
f 795/4/6 788/4/6 796/4/6
f 789/2/6 790/2/6 797/2/6
f 790/2/6 791/2/6 797/2/6
f 797/2/6 791/2/6 798/2/6
f 792/2/6 793/2/6 799/2/6
f 799/2/6 793/2/6 800/2/6
f 795/2/6 796/2/6 801/2/6
f 794/2/6 795/2/6 801/2/6
f 801/2/6 796/2/6 802/2/6
f 797/4/6 798/4/6 803/4/6
f 789/2/6 797/2/6 803/2/6
f 803/4/6 798/4/6 804/4/6
f 799/4/6 800/4/6 805/4/6
f 805/4/6 800/4/6 806/4/6
f 801/4/6 802/4/6 807/4/6
f 802/2/6 796/2/6 808/2/6
f 807/4/6 802/4/6 808/4/6
f 789/2/6 803/2/6 809/2/6
f 808/2/6 796/2/6 812/2/6
f 779/4/6 789/4/6 813/4/6
f 809/2/6 810/2/6 813/2/6
f 789/2/6 809/2/6 813/2/6
f 813/2/6 810/2/6 814/2/6
f 811/2/6 812/2/6 815/2/6
f 796/4/6 788/4/6 816/4/6
f 815/2/6 812/2/6 816/2/6
f 812/2/6 796/2/6 816/2/6
f 813/4/6 814/4/6 817/4/6
f 779/4/6 813/4/6 817/4/6
f 817/4/6 814/4/6 818/4/6
f 815/4/6 816/4/6 819/4/6
f 816/4/6 788/4/6 820/4/6
f 819/4/6 816/4/6 820/4/6
f 821/1/6 822/1/6 825/1/6
f 822/3/6 823/3/6 826/3/6
f 825/1/6 822/1/6 826/1/6
f 823/1/6 824/1/6 827/1/6
f 826/3/6 823/3/6 827/3/6
f 827/1/6 824/1/6 828/1/6
f 829/2/6 830/2/6 833/2/6
f 833/2/6 830/2/6 834/2/6
f 831/2/6 832/2/6 835/2/6
f 835/2/6 832/2/6 836/2/6
f 829/2/6 833/2/6 837/2/6
f 833/4/6 834/4/6 837/4/6
f 834/2/6 830/2/6 838/2/6
f 837/4/6 834/4/6 838/4/6
f 835/4/6 836/4/6 839/4/6
f 831/2/6 835/2/6 839/2/6
f 836/2/6 832/2/6 840/2/6
f 839/4/6 836/4/6 840/4/6
f 829/2/6 837/2/6 841/2/6
f 837/2/6 838/2/6 841/2/6
f 838/2/6 830/2/6 842/2/6
f 841/2/6 838/2/6 842/2/6
f 831/2/6 839/2/6 843/2/6
f 839/2/6 840/2/6 843/2/6
f 840/2/6 832/2/6 844/2/6
f 843/2/6 840/2/6 844/2/6
